<svg xmlns="http://www.w3.org/2000/svg" width="100%" height="100%" preserveAspectRatio="xMidYMid meet" viewBox="0 0 250 54" version="1.1"><g stroke="none" stroke-width="1" fill="none" fill-rule="evenodd"><g transform="translate(-130.000000, -73.000000)"><g transform="translate(130.000000, 73.000000)"><rect stroke="#1877F220" stroke-width="1" fill="#FFFFFF" x="0.5" y="0.5" width="249" height="53" rx="16"></rect><text font-family="Helvetica-Bold, Helvetica" font-size="9" font-weight="bold" fill="#1877F2"><tspan x="63" y="20">FOLLOW US ON</tspan></text><text font-family="Helvetica-Bold, Helvetica" font-size="21" font-weight="bold" fill="#1877F2"><tspan x="62" y="40">Facebook</tspan></text><g transform="translate(202, 13)" fill="#1877F2"><g><svg x="14" y="-1" width="12" height="12" viewBox="0 0 24 24" fill="none" stroke-width="2" stroke="#1877F2" stroke-linecap="round" stroke-linejoin="round"><path d="M7 10v12"></path><path d="M15 5.88 14 10h5.83a2 2 0 0 1 1.92 2.56l-2.33 8A2 2 0 0 1 17.5 22H4a2 2 0 0 1-2-2v-8a2 2 0 0 1 2-2h2.76a2 2 0 0 0 1.79-1.11L12 2a3.13 3.13 0 0 1 3 3.88Z"></path></svg><text font-family="Helvetica-Bold, Helvetica" font-size="13" font-weight="bold" style="line-height: 20px;"><tspan x="6.600000000000001" y="27">800+</tspan></text></g></g><g transform="translate(18.000000, 12.000000)"><svg width="32" height="32" viewBox="0 0 16 16" xmlns="http://www.w3.org/2000/svg" fill="none"><path fill="#1877F2" d="M15 8a7 7 0 00-7-7 7 7 0 00-1.094 13.915v-4.892H5.13V8h1.777V6.458c0-1.754 1.045-2.724 2.644-2.724.766 0 1.567.137 1.567.137v1.723h-.883c-.87 0-1.14.54-1.14 1.093V8h1.941l-.31 2.023H9.094v4.892A7.001 7.001 0 0015 8z"></path><path fill="#ffffff" d="M10.725 10.023L11.035 8H9.094V6.687c0-.553.27-1.093 1.14-1.093h.883V3.87s-.801-.137-1.567-.137c-1.6 0-2.644.97-2.644 2.724V8H5.13v2.023h1.777v4.892a7.037 7.037 0 002.188 0v-4.892h1.63z"></path></svg></g></g></g></g></svg>