<svg xmlns="http://www.w3.org/2000/svg" width="100%" height="100%" preserveAspectRatio="xMidYMid meet" viewBox="0 0 250 54" version="1.1"><g stroke="none" stroke-width="1" fill="none" fill-rule="evenodd"><g transform="translate(-130.000000, -73.000000)"><g transform="translate(130.000000, 73.000000)"><rect stroke="#363636" stroke-width="1" fill="#1E2226" x="0.5" y="0.5" width="249" height="53" rx="16"></rect><text font-family="Helvetica-Bold, Helvetica" font-size="9" font-weight="bold" fill="#FFFFFF"><tspan x="63" y="20">FEATURED ON</tspan></text><text font-family="Helvetica-Bold, Helvetica" font-size="21" font-weight="bold" fill="#FFFFFF"><tspan x="62" y="40">LinkedIn</tspan></text><g transform="translate(202, 13)" fill="#FFFFFF"><g><svg x="14.5" y="-1" width="12" height="12" viewBox="0 0 24 24" fill="none" stroke-width="2" stroke="#FFFFFF" stroke-linecap="round" stroke-linejoin="round"><path d="M16 21v-2a4 4 0 0 0-4-4H6a4 4 0 0 0-4 4v2"></path><circle cx="9" cy="7" r="4"></circle><path d="M22 21v-2a4 4 0 0 0-3-3.87"></path><path d="M16 3.13a4 4 0 0 1 0 7.75"></path></svg><text font-family="Helvetica-Bold, Helvetica" font-size="13" font-weight="bold" style="line-height: 20px;"><tspan x="9.9" y="27">101</tspan></text></g></g><g transform="translate(18.000000, 12.000000)"><svg xmlns="http://www.w3.org/2000/svg" viewBox="0 0 34 34" width="30" height="30" focusable="false"><g transform="scale(.7083)" fill="none" fill-rule="evenodd"><rect fill="none" x="1" y="1" width="46" height="46" rx="4"></rect><path d="M0 4.01A4.01 4.01 0 014.01 0h39.98A4.01 4.01 0 0148 4.01v39.98A4.01 4.01 0 0143.99 48H4.01A4.01 4.01 0 010 43.99V4.01zM19 18.3h6.5v3.266C26.437 19.688 28.838 18 32.445 18 39.359 18 41 21.738 41 28.597V41.3h-7V30.159c0-3.906-.937-6.109-3.32-6.109-3.305 0-4.68 2.375-4.68 6.109V41.3h-7v-23zM7 41h7V18H7v23zm8-30.5a4.5 4.5 0 11-9 0 4.5 4.5 0 019 0z" fill="rgba(255,255,255,90)"></path></g></svg></g></g></g></g></svg>