<svg xmlns="http://www.w3.org/2000/svg" width="100%" height="100%" preserveAspectRatio="xMidYMid meet" viewBox="0 0 220 54" version="1.1"><g stroke="none" stroke-width="1" fill="none" fill-rule="evenodd"><g transform="translate(-130.000000, -73.000000)"><g transform="translate(130.000000, 73.000000)"><rect stroke="#00000020" stroke-width="1" fill="#FFFFFF" x="0.5" y="0.5" width="219" height="53" rx="16"></rect><text font-family="Helvetica-Bold, Helvetica" font-size="9" font-weight="bold" fill="#000000"><tspan x="63" y="20">FIND US ON</tspan></text><g><text font-family="Helvetica-Bold, Helvetica" font-size="21" font-weight="bold" fill="#000000"><tspan x="62" y="40">X</tspan></text><text font-family="Helvetica-Bold, Helvetica" font-size="11" fill="#000000" opacity="0.6"><tspan x="84" y="38">(</tspan></text><text font-family="Helvetica-Bold, Helvetica" font-size="14" fill="#000000" opacity="0.6"><tspan x="89" y="40">Twitter</tspan></text><text font-family="Helvetica-Bold, Helvetica" font-size="11" fill="#000000" opacity="0.6"><tspan x="135" y="38">)</tspan></text></g><g transform="translate(172, 13)" fill="#000000"><g><svg x="12" y="6" width="18" height="18" viewBox="0 0 24 24" fill="none" stroke="#000000" stroke-width="2" stroke-linecap="round" stroke-linejoin="round"><path d="M21 13v6a2 2 0 0 1-2 2H5a2 2 0 0 1-2-2V5a2 2 0 0 1 2-2h6"></path><path d="m21 3-9 9"></path><path d="M15 3h6v6"></path></svg></g></g><g transform="translate(18.000000, 12.000000)"><svg width="29" height="29" viewBox="0 0 24 24" aria-hidden="true"><g><path fill="#000000" d="M18.244 2.25h3.308l-7.227 8.26 8.502 11.24H16.17l-5.214-6.817L4.99 21.75H1.68l7.73-8.835L1.254 2.25H8.08l4.713 6.231zm-1.161 17.52h1.833L7.084 4.126H5.117z"></path></g></svg></g></g></g></g></svg>